<?xml version="1.0" standalone="no"?>
<!DOCTYPE svg PUBLIC "-//W3C//DTD SVG 20010904//EN"
 "http://www.w3.org/TR/2001/REC-SVG-20010904/DTD/svg10.dtd">
<svg version="1.0" xmlns="http://www.w3.org/2000/svg"
 width="225.000000pt" height="225.000000pt" viewBox="0 0 225.000000 225.000000"
 preserveAspectRatio="xMidYMid meet">
<metadata>
Created by potrace 1.14, written by Peter Selinger 2001-2017
</metadata>
<g transform="translate(0.000000,225.000000) scale(0.100000,-0.100000)"
fill="#000000" stroke="none">
<path d="M0 2156 l0 -93 52 -49 c29 -27 96 -79 148 -116 114 -81 203 -167 191
-186 -5 -9 -70 -20 -197 -34 -104 -11 -191 -22 -193 -24 -17 -15 32 -15 186 3
98 10 180 18 182 16 10 -7 -11 -16 -61 -24 l-53 -8 53 3 c39 2 52 0 48 -9 -2
-7 -14 -45 -26 -84 -11 -39 -22 -71 -23 -71 -1 -1 -63 -5 -137 -10 -74 -5
-143 -12 -152 -15 -16 -6 -18 -22 -18 -132 0 -146 -12 -139 135 -68 134 64
132 64 140 13 4 -31 -1 -66 -20 -127 -14 -47 -25 -94 -24 -105 0 -12 8 8 17
44 l17 65 6 -150 c4 -91 12 -168 21 -195 86 -259 202 -387 368 -407 49 -6 51
-7 45 -32 -3 -17 -2 -21 3 -13 6 9 15 -6 28 -50 19 -65 25 -216 11 -271 -7
-26 -6 -27 24 -25 l32 2 -6 101 c-4 74 -3 90 4 60 5 -22 14 -44 19 -49 13 -13
13 -56 0 -56 -5 0 -10 -13 -10 -30 0 -30 1 -30 54 -30 l54 0 -2 33 c-4 50 7
56 20 12 9 -35 15 -40 42 -43 l31 -3 -14 48 c-7 26 -16 71 -20 98 l-6 50 24
-65 c13 -36 30 -80 38 -97 l13 -33 369 0 c323 0 372 2 400 17 28 14 30 14 19
0 -11 -13 -4 -15 68 -16 l80 -1 0 56 c0 36 4 53 11 49 6 -4 8 -9 5 -12 -4 -4
28 -78 39 -91 2 -2 12 2 24 10 16 9 28 10 49 2 26 -10 29 -9 25 7 -4 13 6 23
34 38 55 29 92 60 72 61 -9 0 -24 -9 -34 -20 -10 -12 -25 -18 -32 -15 -8 2
-12 1 -9 -4 3 -5 -1 -11 -8 -14 -8 -3 -17 -3 -19 1 -2 4 -2 2 -1 -5 3 -12 -17
-23 -42 -23 -10 0 -12 5 -8 13 5 8 2 7 -9 -2 -10 -8 -20 -12 -22 -9 -9 8 6 38
16 32 5 -3 6 2 3 10 -4 10 6 18 30 27 36 13 47 34 24 42 -23 7 -44 -4 -61 -31
l-16 -27 -1 27 c0 25 20 46 43 46 5 0 12 3 15 7 4 4 2 6 -3 5 -25 -5 -28 1 -7
16 12 8 20 20 17 25 -4 5 1 9 9 9 9 0 16 5 16 11 0 5 -4 7 -10 4 -5 -3 -10 -1
-10 4 0 6 -4 11 -10 11 -5 0 -10 -9 -10 -21 0 -11 -4 -17 -11 -14 -5 4 -15 -7
-22 -24 -15 -40 -28 -40 -17 -1 5 17 5 28 1 25 -5 -2 -11 21 -13 53 -4 42 0
69 14 101 10 24 17 46 14 48 -2 3 -10 -12 -18 -33 l-13 -37 -11 59 -11 59 1
-96 c1 -53 4 -92 8 -85 9 13 10 -89 2 -121 -4 -13 -13 -23 -20 -23 -8 0 -14
-4 -14 -10 0 -5 5 -10 12 -10 6 0 9 -2 6 -5 -3 -3 -13 -2 -22 1 -17 7 -17 17
0 58 5 14 4 17 -4 12 -8 -4 -12 0 -12 11 -1 45 -22 219 -41 338 -36 222 -85
395 -146 518 -19 38 -28 65 -21 61 7 -5 -1 10 -18 31 -52 66 -85 125 -78 137
4 6 3 8 -3 5 -6 -4 -16 0 -23 8 -11 13 -10 14 5 8 15 -5 17 -3 12 11 -17 44
-19 70 -7 111 7 24 18 46 25 49 14 5 60 -52 50 -62 -3 -4 -10 -1 -14 7 -6 10
-10 9 -15 -4 -3 -9 -6 -24 -5 -33 1 -11 3 -9 7 6 7 22 8 22 27 7 11 -9 14 -13
6 -10 -9 5 -8 0 4 -18 9 -15 13 -32 9 -39 -6 -11 -4 -11 7 0 11 10 11 16 1 32
-11 19 -2 36 12 22 4 -4 11 -7 16 -7 4 0 27 -21 50 -47 23 -27 37 -48 32 -48
-5 0 -17 12 -27 26 -9 14 -19 23 -23 20 -3 -4 6 -19 21 -34 15 -15 28 -39 29
-52 2 -39 -22 -139 -38 -155 -13 -13 -13 -18 3 -46 10 -17 24 -42 31 -55 7
-13 18 -24 23 -24 6 0 7 -5 4 -10 -5 -8 -11 -7 -21 0 -7 7 5 -30 27 -80 22
-51 53 -136 69 -189 16 -53 29 -85 29 -71 0 14 -16 70 -35 125 -51 148 -51
144 -11 101 20 -22 34 -43 31 -48 -3 -4 -1 -8 4 -8 4 0 18 -18 30 -39 12 -21
42 -66 67 -99 40 -56 43 -64 34 -94 -5 -18 -9 -37 -9 -43 1 -20 18 21 30 73
11 48 10 56 -4 70 -14 14 -18 14 -25 4 -7 -11 -11 -10 -25 3 -22 22 -20 32 6
39 17 4 32 -4 60 -31 26 -26 46 -36 72 -38 l36 -2 0 391 0 391 -72 68 c-40 38
-64 64 -53 59 11 -6 31 -22 45 -37 14 -15 37 -36 52 -46 l27 -20 -1 50 c0 45
-3 50 -29 61 -30 13 -55 37 -47 45 3 3 21 -2 41 -10 21 -8 37 -12 37 -7 0 4
-19 14 -42 23 -36 12 -43 18 -40 38 2 20 0 22 -13 11 -9 -7 -15 -8 -15 -2 0 6
-3 18 -7 28 -5 13 -3 16 9 12 8 -4 21 -2 29 3 10 6 4 9 -19 9 -20 0 -31 4 -27
10 3 6 1 10 -5 10 -7 0 -10 -12 -6 -32 3 -22 0 -16 -10 14 -10 33 -19 45 -29
42 -8 -3 -11 -12 -8 -22 4 -10 -8 -5 -31 14 -39 30 -69 85 -60 109 9 22 33 6
70 -49 19 -28 34 -46 34 -41 0 6 7 1 15 -9 25 -33 17 -6 -15 51 -26 46 -28 53
-13 53 15 0 16 2 3 10 -10 7 0 8 35 5 35 -3 41 -2 20 3 -29 8 -28 8 19 15 27
4 62 7 77 7 16 0 29 5 29 10 0 12 -1 12 -117 -1 -119 -14 -142 -7 -144 48 -1
31 -3 28 -10 -20 -5 -32 -13 -65 -18 -75 -6 -11 -5 -25 5 -44 8 -15 21 -53 29
-84 14 -54 14 -59 -7 -95 -17 -31 -26 -37 -43 -33 -17 4 -33 -5 -66 -35 -55
-53 -75 -39 -24 18 21 23 44 41 51 41 18 0 18 3 -6 42 -11 18 -20 41 -20 52 0
12 -5 16 -16 12 -9 -3 -21 -6 -28 -6 -7 0 -33 -18 -58 -40 -25 -21 -48 -36
-52 -33 -3 3 -6 3 -6 -1 0 -7 94 -120 125 -151 6 -5 24 -26 40 -45 l30 -35
-35 30 c-19 17 -38 35 -43 42 -4 7 -13 10 -20 7 -7 -2 -24 7 -37 21 -24 25
-16 36 9 13 8 -7 -19 29 -59 80 -40 51 -76 95 -81 98 -5 3 -9 10 -9 16 0 6 17
-9 38 -32 l38 -43 27 37 c36 46 105 84 119 64 7 -9 8 -7 4 7 -3 11 -6 47 -7
80 -2 55 -7 65 -49 117 -116 145 -336 259 -475 246 l-40 -4 45 -11 45 -11 -62
-1 c-35 -1 -63 -5 -63 -11 0 -5 -7 -10 -16 -10 -10 0 -14 -5 -10 -15 3 -9 -1
-18 -10 -22 -8 -3 -13 -12 -10 -19 4 -11 -1 -13 -22 -7 -34 10 -104 10 -157 0
-28 -5 -21 -1 23 14 67 23 81 37 30 32 l-33 -3 30 15 30 14 -26 1 c-14 0 -49
-7 -78 -16 -29 -8 -57 -14 -63 -12 -5 2 16 12 47 22 31 10 55 19 53 22 -10 9
-219 -67 -292 -107 -43 -23 -108 -70 -144 -103 -36 -34 -60 -51 -54 -39 39 73
238 197 400 249 141 46 221 57 361 52 101 -4 129 -9 219 -41 103 -36 168 -68
230 -115 17 -13 32 -20 32 -16 0 27 -212 138 -319 166 -305 81 -760 -63 -931
-294 l-27 -36 -66 139 c-37 77 -79 158 -92 179 l-25 40 -170 0 -170 0 0 -94z
m1490 -46 c8 -5 11 -10 5 -10 -5 0 -17 5 -25 10 -8 5 -10 10 -5 10 6 0 17 -5
25 -10z m-261 -126 c7 -6 -21 -34 -34 -34 -8 0 -15 -3 -18 -7 -2 -5 -2 -2 -1
5 2 6 -2 12 -9 12 -7 0 -18 9 -25 21 -13 20 -12 20 35 13 26 -3 50 -8 52 -10z
m112 -26 c58 -23 134 -70 189 -116 l35 -30 -37 2 c-23 1 -49 12 -70 29 -30 25
-31 27 -8 21 l25 -7 -20 23 c-23 25 -77 55 -150 81 -27 10 -43 18 -34 19 9 0
41 -10 70 -22z m-254 -124 c3 -8 0 -21 -6 -27 -9 -9 -11 -8 -5 7 4 11 2 21 -7
27 -10 6 -11 9 -1 9 7 0 15 -7 19 -16z m56 -15 c12 -7 25 -16 28 -21 3 -5 15
-11 25 -12 10 -2 18 -9 16 -16 -1 -6 2 -9 8 -5 13 8 78 -43 142 -110 34 -34
44 -51 35 -57 -11 -7 -2 -12 16 -9 5 1 6 -3 2 -9 -4 -6 18 -37 49 -68 59 -61
116 -131 116 -141 -1 -3 -19 17 -42 44 -64 77 -228 235 -244 235 -8 0 -40 16
-70 35 -58 38 -103 75 -90 75 22 0 148 -75 194 -116 29 -26 55 -44 58 -41 12
11 -195 169 -223 170 -7 0 -10 4 -7 9 3 4 -6 8 -20 8 -14 0 -26 2 -26 4 0 2
-3 11 -6 20 -7 19 9 21 39 5z m322 1 c3 -5 2 -10 -4 -10 -5 0 -13 5 -16 10 -3
6 -2 10 4 10 5 0 13 -4 16 -10z m-345 -84 c30 -14 71 -40 90 -57 32 -28 33
-30 10 -23 -14 4 -44 8 -66 9 -69 5 -108 36 -63 50 20 7 20 8 -7 26 -16 10
-37 19 -46 19 -9 0 -19 4 -23 9 -8 14 41 -2 105 -33z m-410 -6 c-30 -4 -65
-10 -77 -14 -13 -4 -23 -5 -23 -2 0 10 65 24 110 24 45 -1 45 -1 -10 -8z m247
-13 c83 -29 163 -79 234 -148 l54 -51 -60 52 c-62 53 -105 79 -172 103 -21 8
-47 18 -58 22 -11 4 1 -6 26 -23 47 -31 82 -67 38 -39 -13 8 -40 14 -59 12
-50 -3 -70 3 -63 21 4 11 14 14 32 10 19 -4 15 0 -14 15 -35 18 -36 20 -10 14
22 -5 27 -3 19 5 -6 6 -30 14 -55 19 -38 8 -40 9 -12 10 17 1 62 -9 100 -22z
m573 -68 c0 -14 -5 -11 -31 17 l-24 27 28 -18 c15 -9 27 -21 27 -26z m-630
-33 c0 -2 -9 -2 -20 1 -11 3 -20 9 -20 15 0 5 9 4 20 -2 11 -6 20 -12 20 -14z
m1247 -12 c-4 11 -3 15 4 11 5 -4 8 -12 6 -18 -3 -7 10 -28 27 -47 41 -46 4
-18 -59 44 -46 45 -47 47 -11 21 30 -21 38 -24 33 -11z m-559 -12 c20 -30 11
-28 -19 4 -13 15 -18 25 -10 22 8 -2 21 -14 29 -26z m-1137 -24 c-10 -24 -21
-50 -25 -58 -3 -8 -4 1 -1 19 5 32 29 81 40 81 2 0 -4 -19 -14 -42z m276 16
c-3 -3 -12 -4 -19 -1 -8 3 -5 6 6 6 11 1 17 -2 13 -5z m922 -88 c0 -22 -4 -50
-8 -61 -6 -14 -9 -7 -14 29 -4 27 -7 67 -7 90 l0 41 15 -29 c8 -15 15 -47 14
-70z m-856 77 c-7 -2 -21 -2 -30 0 -10 3 -4 5 12 5 17 0 24 -2 18 -5z m85 -14
c47 -12 79 -29 53 -29 -11 0 -11 -3 0 -17 12 -15 12 -16 -6 -9 -11 5 -35 13
-53 18 -19 5 -31 12 -28 16 4 3 -4 12 -16 19 -29 16 -10 16 50 2z m-493 -96
c-60 -114 -56 -297 10 -462 18 -46 27 -77 19 -70 -7 8 -25 41 -38 74 -28 67
-33 50 -11 -40 24 -104 46 -158 96 -236 67 -105 165 -196 229 -214 25 -7 25
-7 5 10 -19 16 -19 16 10 10 37 -8 57 -25 29 -25 -19 -1 -19 -1 1 -16 19 -16
19 -16 -5 -9 -85 24 -237 142 -290 225 -38 58 -52 62 -18 4 27 -47 58 -90 58
-79 0 4 22 -13 49 -38 28 -26 78 -65 113 -87 39 -25 66 -50 70 -65 5 -22 2
-25 -36 -30 -68 -11 -149 26 -218 98 -32 32 -56 63 -53 67 3 4 -2 13 -9 19
-47 39 -102 274 -93 401 2 41 2 91 -2 110 -6 35 -6 34 -12 -15 -4 -31 -5 -16
-3 40 5 118 51 282 102 363 26 40 23 16 -3 -35z m719 -44 c7 -71 4 -101 -8
-88 -7 9 -14 169 -6 169 4 0 11 -36 14 -81z m675 -24 c0 -5 -15 8 -34 30 -19
22 -35 45 -35 50 0 6 16 -8 35 -30 19 -22 34 -44 34 -50z m-565 43 c12 -57 17
-152 8 -143 -12 13 -31 165 -20 165 4 0 10 -10 12 -22z m-329 -9 c16 -16 -30
-10 -51 7 -18 15 -18 15 11 9 17 -4 34 -11 40 -16z m1240 -30 c38 -39 32 -45
-8 -10 -18 15 -42 51 -34 51 1 0 21 -19 42 -41z m-1285 -29 c25 -16 4 -11 -54
11 -31 11 -58 25 -61 30 -6 9 83 -23 115 -41z m5 30 c39 -15 26 -21 -18 -9
-21 5 -35 14 -32 20 4 5 10 7 14 4 5 -2 21 -9 36 -15z m1105 -15 c13 -14 21
-25 18 -25 -2 0 -15 11 -28 25 -13 14 -21 25 -18 25 2 0 15 -11 28 -25z m-349
-42 c13 -16 12 -17 -3 -4 -10 7 -18 15 -18 17 0 8 8 3 21 -13z m-863 -13 c7 0
11 4 7 9 -3 5 13 2 35 -7 23 -10 33 -18 24 -20 -9 -2 -13 -10 -10 -18 3 -8 2
-14 -3 -14 -11 0 -91 59 -91 67 0 4 5 2 12 -5 7 -7 18 -12 26 -12z m73 2 c-7
-2 -18 1 -23 6 -8 8 -4 9 13 5 13 -4 18 -8 10 -11z m-194 -72 c56 -78 62 -91
19 -45 -20 22 -46 58 -57 80 -25 48 -15 39 38 -35z m222 -14 c30 -9 74 -16 98
-16 24 0 43 -3 43 -7 0 -5 -16 -23 -36 -42 l-35 -35 -54 27 c-60 29 -64 33
-145 107 l-55 51 65 -35 c36 -19 89 -41 119 -50z m1212 47 l34 -36 -31 21
c-36 24 -61 52 -47 52 5 0 25 -16 44 -37z m150 20 c13 -16 12 -17 -3 -4 -10 7
-18 15 -18 17 0 8 8 3 21 -13z m-1717 -116 c5 4 6 -3 2 -17 -5 -17 -4 -21 2
-11 5 7 15 10 21 7 13 -8 11 -37 -3 -48 -5 -3 7 -34 27 -67 46 -78 39 -79 -11
-1 -22 33 -42 56 -46 53 -4 -4 -4 1 0 11 5 13 4 17 -3 13 -7 -5 -9 1 -5 15 4
16 2 19 -8 13 -9 -5 -11 -4 -6 3 4 6 0 35 -9 64 -23 80 -17 102 8 25 12 -39
26 -65 31 -60z m652 73 c42 0 26 -17 -38 -41 -34 -12 -56 -25 -49 -27 21 -7
96 27 125 57 30 31 48 31 141 -2 l40 -15 -119 -58 c-112 -55 -122 -58 -195
-59 -115 0 -121 5 -71 64 23 27 54 52 68 56 32 8 64 34 56 46 -3 5 -2 15 3 22
5 8 9 3 11 -15 3 -22 9 -28 28 -28z m-539 -42 c3 -22 2 -22 -12 -4 -8 11 -15
27 -15 35 0 23 23 -4 27 -31z m-57 -13 c5 3 12 0 16 -6 4 -8 3 -9 -4 -5 -15 9
-15 1 -1 -26 6 -12 7 -18 1 -14 -11 6 -52 82 -52 94 1 4 8 -6 16 -21 8 -15 19
-25 24 -22z m311 -76 c39 -10 48 -16 43 -28 -4 -9 -8 -27 -11 -41 -3 -20 0
-17 17 13 18 33 24 36 48 30 34 -9 138 -9 176 1 l28 7 -22 -28 c-26 -33 -50
-88 -50 -114 0 -12 -7 -19 -20 -19 -11 0 -20 4 -20 9 0 5 -9 7 -19 4 -50 -13
-242 121 -312 219 -19 27 -19 27 36 -7 31 -18 79 -39 106 -46z m604 55 c48
-32 69 -57 102 -119 23 -44 25 -57 20 -117 -6 -75 -35 -148 -75 -193 -22 -25
-20 -24 12 5 40 37 96 139 96 178 0 12 3 22 8 22 14 -1 102 -209 102 -243 0
-59 -21 -150 -46 -199 -13 -26 -22 -48 -20 -48 12 0 60 75 81 126 l23 57 13
-57 c7 -34 15 -52 20 -44 5 8 10 3 15 -15 3 -16 4 -31 0 -34 -3 -4 -6 1 -6 10
0 27 -17 20 -39 -17 -24 -38 -26 -46 -11 -46 6 0 17 15 25 32 16 39 17 38 44
-94 29 -134 29 -136 -16 -100 -21 16 -54 39 -73 52 -22 14 -27 19 -12 15 20
-6 22 -3 22 29 0 20 4 36 10 36 5 0 7 -8 3 -17 -8 -24 1 -14 17 17 7 14 9 22
5 18 -4 -4 -16 -3 -26 2 -15 8 -25 1 -61 -47 -24 -32 -74 -89 -113 -126 -81
-79 -55 -78 -280 -10 -231 71 -282 101 -349 208 -17 28 -48 61 -69 74 -40 26
-44 40 -5 21 l23 -11 -24 20 c-25 23 -22 57 4 47 8 -3 15 -1 15 4 0 5 7 7 15
4 10 -4 13 -13 10 -24 -5 -17 21 -37 33 -25 3 3 0 5 -6 5 -7 0 -12 4 -12 10 0
5 7 7 15 4 17 -7 21 11 5 21 -6 4 -8 10 -6 14 9 14 -25 51 -46 51 -29 0 -75
-30 -87 -57 -14 -30 -14 -36 -1 -28 6 3 10 0 10 -9 0 -26 -131 46 -176 97 -32
37 -104 156 -104 173 0 3 23 -18 50 -46 28 -27 56 -50 62 -50 6 0 8 -9 5 -21
-4 -15 -3 -18 7 -10 10 8 23 7 49 -4 20 -8 47 -15 59 -15 26 1 101 39 78 40
-9 0 -21 -5 -27 -11 -6 -6 -23 -9 -39 -7 l-29 4 35 11 c19 6 27 12 17 12 -10
1 -27 -4 -39 -10 -21 -11 -68 -5 -68 10 0 10 46 31 70 31 10 0 21 4 24 8 8 13
-81 -3 -98 -17 -32 -27 -121 69 -172 185 -29 67 -31 80 -3 35 11 -19 30 -43
42 -53 12 -11 15 -16 7 -12 -8 4 -4 -5 10 -21 27 -31 108 -85 124 -85 6 1 -5
9 -24 20 -42 23 -109 79 -94 80 5 0 19 -8 30 -18 71 -65 209 -107 319 -95 59
6 65 8 35 13 l-35 6 54 28 c29 15 59 25 67 22 8 -3 18 2 21 11 5 12 10 6 19
-23 l12 -39 2 45 c2 25 5 35 7 23 2 -13 8 -23 13 -23 10 0 6 53 -5 70 -8 13
22 43 35 35 5 -3 7 0 4 8 -3 8 0 18 7 23 7 4 10 3 5 -4 -7 -11 49 -82 65 -82
20 0 9 69 -16 98 -29 34 -24 44 15 30 18 -6 32 -20 39 -39 5 -16 13 -29 16
-29 8 0 -2 34 -22 77 -19 40 -12 60 22 69 31 8 33 6 51 -43 l15 -38 -6 43 c-3
24 -6 48 -8 55 -1 6 6 12 15 15 22 4 37 -25 53 -106 13 -65 13 -65 14 -22 0
25 -5 73 -13 108 -7 34 -10 62 -6 62 4 0 24 -12 45 -26z m-85 6 c0 -5 -4 -10
-9 -10 -6 0 -13 5 -16 10 -3 6 1 10 9 10 9 0 16 -4 16 -10z m-964 -100 c28
-95 28 -110 -2 -66 -12 20 -45 144 -44 166 1 14 31 -52 46 -100z m199 10 c10
-11 16 -20 13 -20 -3 0 -13 9 -23 20 -10 11 -16 20 -13 20 3 0 13 -9 23 -20z
m623 -131 c-3 -20 -5 -19 -9 9 -3 20 -2 29 4 23 5 -5 7 -19 5 -32z m-175 -43
c11 4 17 0 17 -10 0 -9 -7 -16 -15 -16 -16 0 -125 46 -125 53 0 2 24 -4 53
-14 28 -10 60 -16 70 -13z m-373 -302 c0 -2 -9 0 -20 6 -11 6 -20 13 -20 16 0
2 9 0 20 -6 11 -6 20 -13 20 -16z m255 8 c-3 -3 -11 0 -18 7 -9 10 -8 11 6 5
10 -3 15 -9 12 -12z m943 -82 l0 -25 -8 25 c-4 14 -8 36 -8 50 l0 25 8 -25 c4
-14 8 -36 8 -50z m-22 -7 c18 -77 17 -109 -2 -63 -13 33 -14 31 -9 -50 3 -47
7 -103 10 -125 l4 -40 -8 35 c-39 158 -43 188 -26 214 13 19 15 36 10 63 -11
58 6 31 21 -34z m-1109 -9 c-3 -3 -12 -4 -19 -1 -8 3 -5 6 6 6 11 1 17 -2 13
-5z m-6 -143 c-11 -7 -11 -17 2 -60 8 -28 11 -49 7 -46 -12 7 -33 92 -25 104
3 6 12 11 18 11 8 0 7 -3 -2 -9z m1104 -161 c11 -22 12 -29 2 -33 -9 -3 -9 -7
0 -18 7 -8 16 -41 21 -72 8 -52 7 -59 -10 -68 -13 -7 -19 -6 -23 3 -4 12 -35
208 -35 221 0 16 32 -8 45 -33z m188 -140 c3 -11 1 -18 -4 -14 -5 3 -9 12 -9
20 0 20 7 17 13 -6z m-1186 -22 c-3 -8 -6 -5 -6 6 -1 11 2 17 5 13 3 -3 4 -12
1 -19z"/>
<path d="M311 1013 c-1 -27 44 -168 64 -203 21 -36 18 -20 -5 34 -12 25 -29
78 -40 118 -10 40 -19 63 -19 51z"/>
<path d="M331 844 c0 -11 3 -14 6 -6 3 7 2 16 -1 19 -3 4 -6 -2 -5 -13z"/>
<path d="M341 810 c-3 -50 115 -231 169 -260 25 -13 23 24 -2 47 l-21 18 18
-27 c27 -43 2 -33 -43 16 -40 43 -82 115 -108 186 -7 19 -13 28 -13 20z"/>
<path d="M540 541 c0 -4 21 -23 47 -41 25 -19 43 -28 38 -21 -5 9 -3 12 6 9 8
-3 14 -9 13 -14 -2 -17 33 -42 47 -33 11 7 10 9 -4 9 -9 0 -23 11 -29 25 -6
14 -19 25 -28 25 -10 0 -34 11 -54 25 -20 13 -36 21 -36 16z"/>
<path d="M868 1193 c7 -3 16 -2 19 1 4 3 -2 6 -13 5 -11 0 -14 -3 -6 -6z"/>
<path d="M998 1193 c6 -2 18 -2 25 0 6 3 1 5 -13 5 -14 0 -19 -2 -12 -5z"/>
<path d="M966 1044 c-4 -9 -4 -19 -1 -22 2 -3 7 3 11 12 4 9 4 19 1 22 -2 3
-7 -3 -11 -12z"/>
<path d="M1412 970 c0 -14 2 -19 5 -12 2 6 2 18 0 25 -3 6 -5 1 -5 -13z"/>
<path d="M1161 959 c-1 -19 26 -45 36 -35 3 3 1 6 -6 6 -6 0 -16 10 -21 23 -6
15 -9 17 -9 6z"/>
<path d="M1291 945 c-1 -26 -19 -45 -43 -45 -24 0 -23 -16 1 -23 29 -7 60 31
50 63 -6 21 -7 22 -8 5z"/>
<path d="M1040 855 c-19 -7 -28 -14 -20 -14 8 0 29 6 45 14 39 17 21 18 -25 0z"/>
<path d="M834 694 c-19 -15 -19 -15 1 -6 11 5 27 12 35 15 13 5 13 6 -1 6 -8
1 -24 -6 -35 -15z"/>
<path d="M974 576 c-8 -9 -7 -15 3 -24 10 -10 13 -10 13 3 0 9 5 13 11 9 6 -4
8 -21 5 -43 -5 -31 -4 -33 5 -14 21 41 -10 98 -37 69z"/>
<path d="M1030 456 c0 -3 9 -10 20 -16 11 -6 20 -8 20 -6 0 3 -9 10 -20 16
-11 6 -20 8 -20 6z"/>
<path d="M1355 420 c-3 -6 1 -7 9 -4 18 7 21 14 7 14 -6 0 -13 -4 -16 -10z"/>
<path d="M1248 363 c7 -3 16 -2 19 1 4 3 -2 6 -13 5 -11 0 -14 -3 -6 -6z"/>
<path d="M1820 2149 c0 -5 4 -8 10 -4 16 10 64 -178 58 -229 -2 -19 0 -32 5
-29 4 3 16 -2 25 -11 17 -14 18 -12 20 34 1 30 -2 50 -9 50 -5 0 -7 -5 -3 -12
4 -7 3 -8 -5 -4 -6 4 -9 11 -6 16 3 5 -1 12 -8 17 -8 4 -20 33 -27 63 -16 72
-36 120 -49 120 -6 0 -11 -5 -11 -11z"/>
<path d="M1810 2097 c0 -19 -3 -43 -6 -52 -6 -14 -9 -14 -23 -2 -27 23 -120
77 -133 77 -6 0 9 -15 34 -32 71 -52 148 -122 148 -135 0 -6 4 -15 10 -18 6
-4 7 2 1 18 -5 13 -12 57 -16 98 -7 80 -15 104 -15 46z"/>
<path d="M1946 2034 c-3 -8 -6 -23 -5 -32 1 -10 4 -7 9 8 l7 25 11 -25 c10
-23 11 -23 11 -4 1 29 -24 51 -33 28z"/>
<path d="M2188 1873 c12 -2 32 -2 45 0 12 2 2 4 -23 4 -25 0 -35 -2 -22 -4z"/>
<path d="M2105 1789 c19 -28 35 -57 35 -65 0 -8 5 -14 10 -14 6 0 10 2 10 5 0
10 -68 113 -79 119 -5 4 5 -16 24 -45z"/>
<path d="M2025 1766 c17 -13 32 -22 34 -20 5 5 -42 43 -54 44 -5 0 4 -11 20
-24z"/>
<path d="M2200 1730 c-35 -7 -35 -7 -5 -9 17 0 37 4 45 9 17 11 11 11 -40 0z"/>
<path d="M2203 1703 c9 -2 25 -2 35 0 9 3 1 5 -18 5 -19 0 -27 -2 -17 -5z"/>
<path d="M193 1633 c9 -2 25 -2 35 0 9 3 1 5 -18 5 -19 0 -27 -2 -17 -5z"/>
<path d="M45 1620 c-48 -7 -48 -7 -10 -8 22 0 63 3 90 8 47 7 48 7 10 7 -22 0
-62 -3 -90 -7z"/>
<path d="M1780 1366 c0 -2 8 -10 18 -17 15 -13 16 -12 3 4 -13 16 -21 21 -21
13z"/>
<path d="M1766 1325 c-3 -9 -2 -13 3 -10 5 3 12 1 16 -5 3 -5 -3 -10 -14 -10
-12 0 -21 -2 -21 -4 0 -2 -3 -13 -6 -23 -6 -17 -6 -17 8 1 18 23 52 17 56 -11
2 -12 -6 -40 -17 -62 -29 -56 -25 -66 4 -11 13 25 24 56 25 69 0 17 4 21 13
15 7 -5 4 -1 -7 9 -11 10 -27 27 -37 38 -14 17 -17 17 -23 4z"/>
<path d="M1794 1063 c21 -40 56 -89 56 -81 0 10 -60 108 -66 108 -3 0 2 -12
10 -27z"/>
<path d="M223 960 c0 -30 2 -43 4 -27 2 15 2 39 0 55 -2 15 -4 2 -4 -28z"/>
<path d="M232 870 c0 -14 2 -19 5 -12 2 6 2 18 0 25 -3 6 -5 1 -5 -13z"/>
<path d="M297 689 c10 -17 24 -36 32 -42 8 -7 2 7 -14 31 -32 49 -45 57 -18
11z"/>
<path d="M2200 616 c0 -2 7 -7 16 -10 8 -3 12 -2 9 4 -6 10 -25 14 -25 6z"/>
<path d="M1992 570 c0 -14 2 -19 5 -12 2 6 2 18 0 25 -3 6 -5 1 -5 -13z"/>
<path d="M2001 504 c0 -11 3 -14 6 -6 3 7 2 16 -1 19 -3 4 -6 -2 -5 -13z"/>
<path d="M2082 475 c-17 -37 -14 -45 4 -12 9 16 14 31 11 33 -2 2 -9 -7 -15
-21z"/>
<path d="M2107 289 l-52 -51 55 46 c60 51 71 54 91 29 13 -15 11 -16 -12 -10
-19 5 -31 1 -44 -13 -10 -11 -16 -21 -14 -21 2 -1 14 -3 27 -4 25 -3 28 5 10
24 -11 11 -9 11 12 1 14 -8 27 -11 28 -9 2 2 12 -12 23 -31 10 -19 18 -29 19
-21 0 28 -53 111 -72 111 -11 0 -43 -23 -71 -51z"/>
<path d="M712 280 c-1 -25 -6 -61 -12 -79 -5 -19 -8 -37 -5 -39 9 -9 26 82 22
121 l-4 42 -1 -45z"/>
<path d="M2 190 c1 -75 4 -113 8 -95 11 42 10 176 0 200 -5 12 -8 -28 -8 -105z"/>
<path d="M2001 254 c0 -11 3 -14 6 -6 3 7 2 16 -1 19 -3 4 -6 -2 -5 -13z"/>
<path d="M2195 261 c-3 -5 -2 -12 3 -15 5 -3 9 1 9 9 0 17 -3 19 -12 6z"/>
<path d="M2150 220 c-9 -6 -10 -10 -3 -10 6 0 15 5 18 10 8 12 4 12 -15 0z"/>
<path d="M2200 145 c-7 -8 -9 -15 -6 -15 4 0 14 7 22 15 9 8 11 15 6 15 -5 0
-15 -7 -22 -15z"/>
<path d="M2146 115 c-3 -8 -1 -15 4 -15 6 0 10 7 10 15 0 8 -2 15 -4 15 -2 0
-6 -7 -10 -15z"/>
<path d="M649 103 c-13 -16 -12 -17 4 -4 16 13 21 21 13 21 -2 0 -10 -8 -17
-17z"/>
<path d="M2090 86 c0 -10 4 -15 9 -12 5 4 12 0 14 -6 4 -8 6 -9 6 -2 1 6 -6
17 -14 24 -12 10 -15 9 -15 -4z"/>
<path d="M2243 35 c0 -22 2 -30 4 -17 2 12 2 30 0 40 -3 9 -5 -1 -4 -23z"/>
<path d="M1998 3 c7 -3 16 -2 19 1 4 3 -2 6 -13 5 -11 0 -14 -3 -6 -6z"/>
</g>
</svg>
