<?xml version="1.0" standalone="no"?>
<!DOCTYPE svg PUBLIC "-//W3C//DTD SVG 20010904//EN"
 "http://www.w3.org/TR/2001/REC-SVG-20010904/DTD/svg10.dtd">
<svg version="1.0" xmlns="http://www.w3.org/2000/svg"
 width="804.000000pt" height="804.000000pt" viewBox="0 0 804.000000 804.000000"
 preserveAspectRatio="xMidYMid meet">
<metadata>
Created by potrace 1.14, written by Peter Selinger 2001-2017
</metadata>
<g transform="translate(0.000000,804.000000) scale(0.100000,-0.100000)"
fill="#000000" stroke="none">
<path d="M5 7809 c11 -38 36 -71 56 -76 10 -3 19 -10 19 -15 0 -6 -9 -8 -20
-4 -11 3 -29 9 -40 12 -20 6 -20 3 -20 -665 0 -369 4 -670 8 -670 20 3 21 -3
7 -30 -13 -26 -14 -76 -11 -343 3 -172 7 -326 9 -343 3 -16 5 -39 6 -51 1 -17
15 -25 81 -44 44 -13 78 -25 76 -28 -4 -3 -99 17 -158 34 -17 5 -18 -38 -18
-795 l0 -801 26 0 27 0 -27 -21 -26 -21 1 -1461 c0 -1347 2 -1465 17 -1504 20
-50 49 -86 80 -102 13 -7 21 -15 18 -18 -3 -3 -29 6 -57 20 -28 15 -53 27 -55
27 -2 0 -4 -49 -4 -109 0 -93 3 -112 20 -134 20 -25 20 -25 0 -20 -17 5 -20 0
-20 -33 0 -22 9 -56 20 -77 l21 -39 -21 7 c-20 6 -20 3 -20 -144 l0 -151 562
1 c526 0 563 1 587 18 14 10 37 22 49 26 21 6 23 5 13 -13 -6 -11 -8 -22 -5
-24 2 -3 83 18 180 47 l175 52 -52 -51 -52 -51 678 -3 c373 -1 681 0 684 3 3
4 1 9 -4 13 -6 4 -16 14 -22 23 -8 10 7 6 44 -13 55 -28 59 -28 229 -28 109 0
174 4 174 10 0 5 -21 23 -47 40 -27 16 -41 30 -32 30 9 0 19 -3 23 -7 4 -5 11
-8 14 -9 4 0 32 -7 62 -16 30 -10 69 -19 85 -22 17 -3 41 -9 55 -12 14 -4 213
-8 443 -11 372 -3 417 -2 417 12 0 14 3 14 30 0 24 -12 73 -15 269 -15 l240 0
-19 62 c-10 35 -21 72 -25 83 -3 11 4 2 16 -20 12 -22 28 -58 34 -79 7 -22 17
-42 23 -44 7 -2 10 3 6 12 -8 20 -5 20 35 0 24 -12 55 -15 131 -12 83 2 103 6
129 26 l31 22 -10 -26 -11 -27 43 7 c107 16 185 47 215 86 6 8 15 12 19 7 7
-6 -1 -28 -28 -81 -9 -17 -7 -18 24 -12 18 3 52 9 76 12 24 3 51 7 60 9 9 2
25 4 35 4 9 1 17 8 17 16 0 8 4 15 8 15 5 0 9 -7 9 -15 0 -8 -3 -15 -7 -15 -4
0 -7 -7 -7 -16 0 -41 115 17 163 83 56 77 50 57 -16 -50 l-29 -47 139 0 c76 0
141 4 144 9 3 5 15 11 27 14 15 4 19 2 15 -9 -5 -13 3 -14 52 -9 31 3 66 7 77
10 11 2 28 4 38 4 11 1 20 12 24 31 3 17 9 33 13 35 4 3 4 -12 -1 -33 -5 -20
-9 -40 -9 -44 0 -5 405 -8 900 -8 l900 0 0 120 c0 117 -1 120 -22 120 -21 0
-21 0 3 26 16 18 20 28 12 31 -9 3 -9 12 -2 29 5 14 9 72 9 128 0 89 -3 107
-20 129 l-21 26 21 -4 c20 -4 20 -1 20 424 0 415 -1 429 -20 454 l-21 26 21
-4 c19 -4 20 1 20 148 0 130 -3 158 -19 190 -18 36 -18 36 0 26 11 -5 19 -7
19 -4 0 16 -29 72 -43 84 -10 7 -17 19 -17 25 0 7 3 7 8 1 4 -5 17 -16 30 -23
l22 -12 0 150 c0 112 -4 160 -15 187 -16 37 -12 59 6 33 8 -13 3 577 -5 635
-1 10 -22 36 -47 58 -45 41 -42 41 24 0 l37 -23 0 252 c0 205 -3 258 -15 282
-19 36 -19 52 0 36 20 -17 19 -2 -4 60 -19 49 -19 49 1 39 19 -10 19 -6 16
272 -2 215 -6 283 -15 287 -7 2 -13 8 -13 14 0 6 7 7 16 4 13 -5 15 0 9 36 -4
24 -16 61 -26 82 -24 51 -24 52 6 32 l25 -16 0 283 c0 258 -2 286 -19 320 -19
37 -16 48 7 25 9 -9 12 76 12 383 0 366 -1 397 -19 432 -18 36 -18 36 0 26 18
-9 19 -4 19 101 0 76 -5 122 -15 147 -19 44 -19 49 0 33 13 -11 15 29 15 352
0 344 -1 366 -20 403 -24 47 -25 51 -5 35 26 -21 29 -4 16 81 -14 94 -39 175
-76 250 -14 30 -20 47 -13 39 8 -8 31 -31 52 -50 l38 -35 -16 32 c-11 21 -12
34 -5 38 6 4 13 4 16 1 4 -3 1 -6 -6 -6 -7 0 -9 -5 -5 -11 17 -28 24 28 24
199 l0 182 -221 0 -221 0 23 -20 c24 -21 24 -21 -18 0 -39 19 -47 18 -44 -2 0
-4 -15 0 -34 8 -42 17 -525 21 -525 4 0 -7 -6 -7 -19 0 -28 14 -941 14 -941
-1 0 -6 -8 -8 -17 -5 -31 10 -463 18 -463 9 0 -5 5 -14 12 -21 15 -15 4 -15
-47 -1 -44 13 -60 15 -157 25 -69 7 -88 -3 -50 -26 18 -11 14 -11 -45 5 -73
19 -213 30 -213 17 0 -10 18 -20 130 -68 84 -35 101 -51 30 -26 -112 39 -230
69 -297 77 -21 2 -49 7 -63 10 -14 3 -73 8 -132 11 -108 7 -132 0 -90 -26 14
-9 13 -10 -8 -4 -120 34 -124 34 -717 34 -379 0 -593 -4 -593 -10 0 -6 -9 -6
-26 0 -15 6 -296 10 -730 10 -748 0 -754 0 -784 -47 -10 -15 -11 -13 -6 15 l6
32 -380 0 c-247 0 -380 -4 -380 -10 0 -5 10 -10 23 -11 12 0 31 -2 42 -4 11
-3 43 -6 70 -9 133 -12 181 -19 190 -28 6 -6 -1 -7 -20 -4 -33 5 -122 13 -225
21 -152 12 -187 15 -230 19 -25 3 -81 7 -125 10 -44 3 -104 8 -134 12 -46 5
-53 3 -48 -10 5 -14 -1 -15 -50 -10 -88 8 -185 14 -356 20 l-159 6 7 -23z
m605 -9 c0 -5 -7 -7 -15 -4 -8 4 -15 8 -15 10 0 2 7 4 15 4 8 0 15 -4 15 -10z
m855 -42 c4 -3 -10 -4 -31 -2 -20 2 -39 6 -42 8 -3 3 11 4 31 3 20 -2 39 -6
42 -9z m2130 -64 c28 -9 68 -20 90 -25 22 -5 51 -12 65 -15 14 -4 37 -7 52 -7
15 0 25 -3 23 -7 -5 -7 -69 -5 -110 4 -16 3 -39 8 -50 10 -28 6 -108 37 -119
48 -13 11 -9 10 49 -8z m-2975 -89 c41 -9 86 -18 100 -20 24 -4 45 -9 93 -21
12 -3 39 -8 60 -11 20 -3 37 -10 37 -15 0 -5 -8 -7 -17 -4 -18 5 -46 11 -93
21 -14 3 -45 9 -70 14 -25 5 -48 7 -52 5 -4 -2 -9 0 -13 6 -3 5 -18 10 -33 10
-15 0 -59 9 -99 19 -40 10 -75 16 -79 12 -4 -3 -4 -1 -1 5 7 12 26 10 167 -21z
m3424 -27 c-3 -4 -11 -5 -19 -1 -21 7 -19 12 4 10 11 0 18 -5 15 -9z m59 -5
c-7 -2 -19 -2 -25 0 -7 3 -2 5 12 5 14 0 19 -2 13 -5z m72 -11 c-3 -3 -11 0
-18 7 -9 10 -8 11 6 5 10 -3 15 -9 12 -12z m74 -7 c3 -3 -7 -4 -23 -1 -16 3
-31 8 -35 11 -3 3 7 4 23 1 16 -3 31 -8 35 -11z m68 -11 c-3 -3 -12 -4 -19 -1
-8 3 -5 6 6 6 11 1 17 -2 13 -5z m38 -12 c-3 -3 -11 0 -18 7 -9 10 -8 11 6 5
10 -3 15 -9 12 -12z m-3352 -8 c9 -3 17 -9 17 -14 0 -8 -89 15 -99 26 -6 6 43
-2 82 -12z m3397 6 c8 -5 11 -10 5 -10 -5 0 -17 5 -25 10 -8 5 -10 10 -5 10 6
0 17 -5 25 -10z m54 -9 c4 -5 -3 -7 -14 -4 -23 6 -26 13 -6 13 8 0 17 -4 20
-9z m-3404 -11 c0 -5 -4 -10 -10 -10 -5 0 -10 5 -10 10 0 6 5 10 10 10 6 0 10
-4 10 -10z m3445 0 c3 -6 -1 -7 -9 -4 -18 7 -21 14 -7 14 6 0 13 -4 16 -10z
m-3320 -26 c122 -26 157 -35 153 -39 -2 -3 -20 -1 -39 4 -19 5 -72 17 -119 26
-47 10 -92 22 -100 27 -11 7 -10 8 5 4 11 -2 56 -12 100 -22z m3405 6 c8 -5
11 -10 5 -10 -5 0 -17 5 -25 10 -8 5 -10 10 -5 10 6 0 17 -5 25 -10z m103 -27
c-7 -2 -19 -2 -25 0 -7 3 -2 5 12 5 14 0 19 -2 13 -5z m-3312 -31 c-7 -2 -18
1 -23 6 -8 8 -4 9 13 5 13 -4 18 -8 10 -11z m46 -8 c-3 -3 -12 -4 -19 -1 -8 3
-5 6 6 6 11 1 17 -2 13 -5z m28 -4 c3 -5 1 -10 -4 -10 -6 0 -11 5 -11 10 0 6
2 10 4 10 3 0 8 -4 11 -10z m3450 0 c13 -6 15 -9 5 -9 -8 0 -22 4 -30 9 -18
12 -2 12 25 0z m111 -51 c3 -5 -7 -4 -23 3 -41 17 -53 30 -15 17 18 -6 35 -15
38 -20z m72 -35 c-6 -6 -58 20 -58 29 0 4 14 0 31 -8 17 -9 29 -18 27 -21z
m42 -9 c7 -8 16 -12 21 -9 5 3 9 0 9 -7 0 -7 3 -9 6 -6 6 6 161 -68 174 -83 3
-3 24 -14 47 -24 23 -10 51 -27 63 -38 11 -10 20 -16 20 -13 0 6 138 -83 158
-103 8 -6 33 -26 58 -43 24 -16 44 -32 44 -35 0 -2 -15 6 -33 18 -105 72 -215
144 -232 154 -160 90 -205 114 -214 114 -6 0 -11 3 -11 8 0 4 -15 13 -32 20
-18 8 -44 18 -58 24 -14 7 -28 11 -32 10 -3 -1 -9 5 -12 13 -7 19 8 19 24 0z
m-3255 -25 c3 -5 1 -10 -4 -10 -6 0 -11 5 -11 10 0 6 2 10 4 10 3 0 8 -4 11
-10z m438 -75 c-3 -9 -8 -14 -10 -11 -3 3 -2 9 2 15 9 16 15 13 8 -4z m-177
-207 c-26 -24 -67 -65 -93 -93 -37 -41 -40 -43 -16 -10 33 42 137 145 148 145
4 0 -14 -19 -39 -42z m3629 -78 c10 -11 16 -20 13 -20 -3 0 -13 9 -23 20 -10
11 -16 20 -13 20 3 0 13 -9 23 -20z m-3794 -113 c-10 -9 -11 -8 -5 6 3 10 9
15 12 12 3 -3 0 -11 -7 -18z m-71 -22 c0 -8 -4 -15 -10 -15 -5 0 -7 7 -4 15 4
8 8 15 10 15 2 0 4 -7 4 -15z m-32 -45 c-7 -10 -14 -17 -17 -15 -4 4 18 35 25
35 2 0 -1 -9 -8 -20z m-18 -34 c0 -2 -7 -9 -15 -16 -13 -11 -14 -10 -9 4 5 14
24 23 24 12z m-103 -58 c-3 -8 -6 -5 -6 6 -1 11 2 17 5 13 3 -3 4 -12 1 -19z
m-1564 -200 c9 0 17 -3 17 -8 0 -11 -72 -2 -85 11 -7 7 -1 8 20 3 17 -4 38 -7
48 -6z m3526 -244 c-6 -16 -13 -36 -15 -44 -2 -8 -12 -47 -23 -85 -11 -39 -22
-84 -25 -100 -3 -17 -8 -39 -10 -50 -2 -11 -7 -44 -11 -72 -4 -29 -11 -53 -17
-53 -5 0 -7 4 -4 9 4 5 8 38 11 73 8 104 58 297 92 351 11 18 13 -2 2 -29z
m-2197 -6 c-7 -7 -12 -21 -12 -32 0 -12 -5 -28 -10 -36 -7 -11 -9 -7 -7 15 1
20 -2 29 -10 28 -23 -5 -14 11 15 28 30 17 43 16 24 -3z m-1242 -158 c7 -7 95
-45 168 -72 34 -13 62 -26 62 -30 0 -4 -19 1 -42 12 -23 10 -46 16 -50 14 -4
-3 -8 -1 -8 4 0 5 -6 9 -13 9 -18 0 -185 82 -193 94 -5 9 65 -20 76 -31z
m5030 -194 c0 -2 -8 -10 -17 -17 -16 -13 -17 -12 -4 4 13 16 21 21 21 13z
m-150 -139 c-122 -119 -132 -131 -216 -242 -29 -38 -70 -93 -92 -122 -22 -28
-64 -90 -92 -137 -28 -47 -57 -89 -63 -93 -7 -4 -6 1 2 10 7 9 10 17 5 17 -5
0 -4 4 2 8 6 4 22 28 36 54 26 48 48 80 155 221 35 45 73 96 85 112 30 40 274
285 284 285 5 0 -43 -51 -106 -113z m-1539 60 c-10 -9 -11 -8 -5 6 3 10 9 15
12 12 3 -3 0 -11 -7 -18z m-2216 -39 c1 -2 0 -11 -4 -21 -6 -16 -10 -14 -35
12 l-29 31 33 -10 c18 -5 34 -11 35 -12z m-244 -86 c-7 -2 -18 1 -23 6 -8 8
-4 9 13 5 13 -4 18 -8 10 -11z m144 -17 c22 -4 47 -8 55 -10 8 -2 18 -4 23 -4
4 -1 5 -13 2 -28 -5 -27 -7 -46 -21 -183 -11 -111 -12 -124 -13 -163 -1 -43
-21 -42 -22 1 0 24 -1 25 -8 7 -5 -11 -7 -28 -5 -37 4 -25 -5 -22 -15 5 -17
45 -22 79 -11 72 24 -15 50 -14 51 3 0 9 3 58 6 107 11 202 12 197 -22 207
-47 13 -78 20 -112 25 -18 3 -31 9 -28 13 3 4 22 4 42 0 21 -5 56 -11 78 -15z
m5446 -22 c13 -16 12 -17 -3 -4 -10 7 -18 15 -18 17 0 8 8 3 21 -13z m139
-145 c0 -12 -6 -9 -26 13 -19 22 -19 22 4 8 12 -8 22 -17 22 -21z m-369 -223
c29 -111 38 -154 54 -275 4 -30 9 -58 11 -62 2 -4 0 -9 -5 -12 -4 -3 -11 13
-15 37 -3 23 -8 58 -12 77 -7 47 -68 281 -93 355 -10 33 -22 69 -25 80 -4 11
9 -11 28 -50 19 -38 45 -106 57 -150z m419 185 c12 -12 105 -85 172 -135 40
-30 78 -58 83 -62 6 -5 36 -25 67 -47 31 -21 67 -50 80 -65 l23 -26 -25 21
c-14 11 -70 52 -125 89 -55 38 -102 71 -105 75 -3 3 -23 19 -45 36 -59 43
-195 164 -150 133 11 -8 22 -16 25 -19z m-193 -42 c2 -17 0 -19 -7 -8 -5 8 -6
18 -4 22 8 12 10 10 11 -14z m43 -58 c0 -11 -4 -20 -9 -20 -7 0 -8 17 -2 38 4
10 11 -2 11 -18z m-2426 -135 c-20 -25 -38 -45 -41 -45 -7 0 62 89 70 90 5 0
-8 -20 -29 -45z m-49 -65 c-3 -5 -12 -10 -18 -10 -7 0 -6 4 3 10 19 12 23 12
15 0z m1732 -25 c0 -8 -4 -12 -9 -9 -5 3 -6 10 -3 15 9 13 12 11 12 -6z m17
-40 c3 -8 1 -15 -4 -15 -6 0 -10 7 -10 15 0 8 2 15 4 15 2 0 6 -7 10 -15z m17
-52 c6 -16 12 -36 14 -45 2 -9 9 -27 16 -40 7 -13 11 -23 9 -23 -1 0 5 -27 15
-60 42 -146 72 -358 53 -387 -5 -9 -8 -5 -9 12 -1 28 -3 42 -18 109 -6 25 -19
98 -31 162 -11 64 -31 158 -44 208 -24 89 -26 119 -5 64z m-1912 -80 c-8 -10
-21 -31 -29 -48 -8 -16 -23 -39 -32 -49 -10 -11 -18 -23 -18 -28 0 -4 -5 -8
-10 -8 -6 0 7 26 27 58 40 62 63 92 71 92 3 0 -1 -8 -9 -17z m-582 -72 c0 -11
-5 -18 -9 -15 -4 3 -5 11 -1 19 7 21 12 19 10 -4z m3003 4 c0 -8 -2 -15 -4
-15 -2 0 -6 7 -10 15 -3 8 -1 15 4 15 6 0 10 -7 10 -15z m-5304 -32 c-2 -15
-8 -29 -15 -31 -14 -5 -14 0 -1 32 12 34 19 33 16 -1z m21 -35 c-3 -8 -6 -5
-6 6 -1 11 2 17 5 13 3 -3 4 -12 1 -19z m2756 -23 c-3 -9 -8 -14 -10 -11 -3 3
-2 9 2 15 9 16 15 13 8 -4z m-2758 -37 c-12 -130 -28 -380 -28 -420 0 -21 -4
-38 -8 -38 -4 0 -6 57 -3 128 2 70 6 181 9 247 2 66 4 121 5 123 0 1 6 2 14 2
11 0 13 -11 11 -42z m2272 20 c-3 -8 -6 -5 -6 6 -1 11 2 17 5 13 3 -3 4 -12 1
-19z m0 -70 c-3 -8 -6 -5 -6 6 -1 11 2 17 5 13 3 -3 4 -12 1 -19z m-2042 -140
c-6 -188 -13 -355 -19 -428 -3 -30 -8 -91 -11 -135 -3 -44 -8 -109 -11 -145
-4 -36 -8 -76 -9 -90 -8 -82 -20 -204 -30 -290 -4 -36 -9 -78 -10 -95 -2 -16
-4 -30 -5 -30 -1 0 -3 -13 -5 -30 -9 -91 -17 -154 -21 -182 -5 -43 -11 -86
-19 -148 -10 -76 -14 -108 -19 -130 -2 -11 -7 -49 -11 -85 -4 -36 -8 -67 -10
-70 -2 -3 -6 -29 -10 -59 -4 -30 -9 -63 -11 -75 -4 -19 -7 -36 -18 -121 -3
-16 -9 -59 -15 -95 -5 -36 -13 -85 -16 -110 -3 -25 -9 -58 -12 -75 -3 -16 -7
-39 -8 -50 -2 -11 -11 -66 -20 -122 -9 -57 -18 -115 -20 -130 -2 -16 -4 -30
-5 -33 -5 -12 -7 -27 -8 -57 -1 -18 -7 -33 -13 -33 -5 0 -8 3 -6 7 3 5 8 31
11 58 3 28 8 66 10 85 3 19 10 73 16 120 11 84 13 97 24 175 4 22 8 60 11 85
3 25 7 56 10 70 2 14 7 50 10 80 4 30 8 66 10 80 2 14 9 66 15 115 6 50 13
101 15 115 2 14 6 48 10 75 3 28 8 61 10 75 2 14 6 45 9 70 3 25 8 56 10 70 4
26 12 82 22 165 3 28 7 61 9 74 3 14 7 54 11 90 3 36 7 68 9 71 4 6 13 90 19
180 3 30 7 84 11 120 13 142 15 168 20 235 3 39 7 93 9 120 3 28 8 82 11 120
4 39 8 89 10 112 2 24 7 76 10 115 3 40 8 100 11 133 3 33 6 80 8 105 4 50 4
50 11 50 2 0 2 -69 0 -152z m1960 12 c13 -278 18 -365 30 -550 3 -47 8 -125
10 -175 2 -49 5 -90 5 -90 1 0 7 -102 15 -235 2 -52 7 -117 9 -145 2 -27 7
-111 11 -185 7 -136 2 -173 -9 -68 -3 31 -8 63 -10 70 -5 13 -13 80 -22 163
-2 22 -6 58 -9 80 -6 56 -17 176 -20 243 -17 318 -21 455 -25 767 -2 196 -1
249 4 244 3 -3 7 -56 11 -119z m72 -12 c-3 -7 -5 -2 -5 12 0 14 2 19 5 13 2
-7 2 -19 0 -25z m0 -93 c0 -8 -4 -12 -9 -9 -5 3 -6 10 -3 15 9 13 12 11 12 -6z
m3630 -95 c119 -51 282 -136 375 -196 38 -24 73 -44 78 -44 6 0 10 -4 10 -8 0
-4 13 -15 29 -25 37 -22 115 -86 120 -99 2 -5 -43 22 -100 60 -57 39 -124 81
-149 94 -62 34 -198 107 -305 163 -49 26 -110 58 -135 72 l-45 24 40 -36 c52
-46 55 -48 90 -71 29 -18 44 -30 87 -66 11 -10 55 -39 97 -65 42 -26 78 -51
79 -55 2 -4 8 -8 13 -8 6 0 27 -11 47 -25 66 -45 26 -26 -90 41 -185 108 -297
189 -357 256 l-34 39 26 -5 c14 -2 70 -23 124 -46z m-5917 -94 c0 -3 -4 -8
-10 -11 -5 -3 -10 -1 -10 4 0 6 5 11 10 11 6 0 10 -2 10 -4z m-10 -48 c-1 -22
-1 -22 -15 -5 -13 18 -14 17 -17 -5 -3 -22 -4 -22 -9 5 -5 23 -3 27 17 27 18
0 24 -5 24 -22z m5657 -30 c-3 -8 -6 -5 -6 6 -1 11 2 17 5 13 3 -3 4 -12 1
-19z m-3802 -7 c3 -11 8 -30 10 -43 3 -13 8 -36 12 -53 4 -16 7 -32 8 -35 1
-3 4 -18 8 -35 4 -16 10 -40 12 -52 3 -13 7 -31 9 -40 3 -10 12 -51 20 -92 9
-40 19 -77 22 -82 3 -5 2 -9 -3 -9 -15 1 -63 73 -64 97 -1 23 -5 41 -9 46 -1
1 -3 16 -4 32 -2 17 -8 59 -14 95 -18 99 -20 112 -26 153 -6 38 8 52 19 18z
m3673 -36 c-3 -3 -9 2 -12 12 -6 14 -5 15 5 6 7 -7 10 -15 7 -18z m129 -7 c-3
-8 -6 -5 -6 6 -1 11 2 17 5 13 3 -3 4 -12 1 -19z m-121 -91 c2 -73 15 -200 20
-209 3 -4 0 -8 -5 -8 -6 0 -11 15 -12 33 0 17 -2 41 -4 52 -7 37 -12 186 -7
180 4 -3 7 -25 8 -48z m130 27 c1 -9 0 -13 -4 -10 -3 4 -7 14 -8 22 -1 9 0 13
4 10 3 -4 7 -14 8 -22z m4 -44 c0 -11 -2 -20 -4 -20 -2 0 -6 9 -9 20 -3 11 -1
20 4 20 5 0 9 -9 9 -20z m-685 -112 c2 -40 0 -89 -4 -108 -5 -23 -7 2 -8 78 0
125 7 143 12 30z m690 68 c12 -11 15 -62 15 -251 1 -130 -1 -239 -4 -242 -3
-3 -1 -14 5 -24 7 -13 6 -19 -1 -19 -6 0 -9 -4 -5 -9 7 -12 8 -471 1 -479 -3
-3 -6 21 -7 54 -2 224 -7 342 -13 352 -4 7 -3 12 1 12 5 0 8 15 6 33 -1 17 -5
147 -8 287 -3 140 -7 265 -10 277 -4 26 1 29 20 9z m33 -6 c7 -11 9 -20 4 -20
-4 0 -13 9 -20 20 -7 11 -9 20 -4 20 4 0 13 -9 20 -20z m-6698 -32 c0 -5 -9
-4 -20 2 -11 6 -20 12 -20 14 0 2 9 2 20 -1 11 -3 20 -9 20 -15z m3970 -93 c5
3 11 1 15 -5 3 -5 18 -10 33 -10 15 0 34 -5 42 -11 11 -7 3 -8 -30 -3 -47 7
-110 29 -110 39 0 3 9 1 20 -5 11 -6 25 -8 30 -5z m2579 -88 c0 -23 3 -55 5
-72 3 -16 8 -70 11 -120 4 -49 8 -112 10 -140 2 -27 6 -68 9 -90 2 -22 7 -76
11 -120 3 -44 8 -100 10 -125 14 -168 20 -265 30 -540 7 -181 1 -232 -9 -75
-3 50 -8 115 -11 145 -2 30 -7 96 -10 145 -3 50 -8 117 -10 150 -3 33 -7 98
-10 145 -6 94 -13 186 -20 270 -2 30 -7 96 -10 145 -6 111 -13 202 -20 278 -3
35 -2 56 4 53 5 -4 10 -25 10 -49z m-2669 -1 c58 -18 161 -65 135 -62 -36 4
-195 60 -195 68 0 11 8 10 60 -6z m664 -25 c24 -12 46 -28 49 -35 4 -9 -6 -7
-31 5 -21 9 -50 20 -67 23 -28 6 -27 5 12 -21 49 -32 57 -49 14 -27 -29 15
-55 22 -96 29 -11 2 -20 4 -20 5 0 1 -10 3 -22 4 -44 5 -36 16 13 17 47 1 48
1 17 10 -18 5 -33 11 -33 13 0 13 126 -5 164 -23z m-2494 -21 c50 -33 200
-178 200 -193 0 -10 -17 2 -55 38 -11 11 -46 43 -77 70 -31 28 -72 65 -92 83
-46 40 -35 41 24 2z m-77 -92 c-1 -35 -2 -82 -2 -106 -1 -27 -5 -41 -11 -37
-6 4 -8 10 -6 14 3 4 6 45 7 92 1 73 5 99 12 99 1 0 1 -28 0 -62z m2181 -74
c30 -62 79 -220 74 -236 -2 -6 -12 11 -22 38 -51 141 -66 175 -79 167 -5 -3
-6 3 -2 16 3 11 2 21 -3 21 -5 0 -12 12 -14 28 -3 15 -8 36 -13 47 -13 38 33
-27 59 -81z m-4217 20 c-3 -3 -12 -4 -19 -1 -8 3 -5 6 6 6 11 1 17 -2 13 -5z
m46 -1 c-7 -2 -19 -2 -25 0 -7 3 -2 5 12 5 14 0 19 -2 13 -5z m172 -8 c6 -2
-20 -4 -57 -3 -38 1 -68 4 -68 8 0 7 105 2 125 -5z m80 -4 c-8 -7 -65 -8 -60
-1 2 3 18 6 34 6 17 0 28 -2 26 -5z m40 -1 c-3 -5 -12 -10 -18 -10 -7 0 -6 4
3 10 19 12 23 12 15 0z m49 -12 c-3 -4 -11 -5 -19 -1 -21 7 -19 12 4 10 11 0
18 -5 15 -9z m612 -25 c-11 -11 -17 4 -9 23 7 18 8 18 11 1 2 -10 1 -21 -2
-24z m3246 -136 c21 -62 42 -111 47 -110 5 1 7 -7 4 -18 -4 -13 2 -27 15 -40
30 -27 34 -24 30 18 -4 50 18 54 31 6 15 -54 14 -63 -9 -63 -19 0 -19 -3 11
-46 25 -37 30 -51 22 -64 -8 -12 -4 -25 17 -53 15 -20 31 -33 35 -29 5 4 5 1
0 -7 -17 -30 -93 86 -160 244 -16 38 -95 274 -95 284 0 20 21 -28 52 -122z
m1275 107 c-3 -3 -12 -4 -19 -1 -8 3 -5 6 6 6 11 1 17 -2 13 -5z m170 -146
c23 -15 46 -28 51 -28 5 0 17 -9 27 -20 17 -18 15 -18 -27 3 -24 12 -62 37
-84 56 -43 37 -32 33 33 -11z m-3631 -21 c21 -103 62 -205 116 -290 17 -26 28
-51 24 -54 -3 -4 -6 -1 -6 5 0 6 -7 17 -15 26 -40 40 -115 213 -130 301 -6 34
5 46 11 12z m-366 -57 c0 -5 -2 -10 -4 -10 -3 0 -8 5 -11 10 -3 6 -1 10 4 10
6 0 11 -4 11 -10z m5096 -152 c1 -35 3 -114 4 -175 2 -62 0 -116 -5 -120 -4
-5 -5 -3 -1 4 3 6 3 14 -2 17 -12 7 -17 104 -13 279 1 77 17 73 17 -5z m-2358
5 c0 -10 2 -31 6 -48 6 -25 4 -23 -12 10 -19 39 -19 55 -2 55 5 0 8 -8 8 -17z
m-1683 -63 c10 -11 16 -20 13 -20 -3 0 -13 9 -23 20 -10 11 -16 20 -13 20 3 0
13 -9 23 -20z m-496 -135 l26 -30 -32 29 c-18 17 -33 37 -32 45 0 14 1 14 6 1
3 -8 17 -28 32 -45z m4488 -27 c-3 -7 -5 -2 -5 12 0 14 2 19 5 13 2 -7 2 -19
0 -25z m-5724 -8 c3 -11 1 -20 -4 -20 -5 0 -9 9 -9 20 0 11 2 20 4 20 2 0 6
-9 9 -20z m-8 -87 c-6 -73 -10 -105 -39 -303 -9 -58 -18 -114 -20 -125 -8 -41
-19 -121 -20 -147 0 -16 -3 -28 -6 -28 -4 0 -6 -10 -7 -22 0 -20 -4 -58 -19
-173 -2 -16 -6 -68 -9 -115 -7 -102 -20 -180 -42 -252 -9 -29 -18 -59 -19 -66
-1 -8 -6 -17 -9 -20 -6 -6 0 64 10 119 2 9 6 40 10 70 3 30 8 61 10 69 3 8 7
31 9 50 3 19 8 58 12 85 4 28 8 62 8 78 1 15 3 27 6 27 4 0 6 10 7 23 0 21 9
95 18 147 2 14 7 43 10 65 4 22 8 54 10 70 2 17 6 46 10 65 3 19 8 53 11 75 2
22 6 56 9 75 3 19 8 51 10 70 2 19 7 46 10 60 3 14 7 43 10 65 15 105 28 131
20 38z m5739 41 c3 -8 2 -12 -4 -9 -6 3 -10 10 -10 16 0 14 7 11 14 -7z
m-6864 -34 c0 -12 -17 -12 -45 0 -17 7 -15 9 13 9 17 1 32 -3 32 -9z m7100
-150 c131 -87 171 -113 185 -120 36 -18 126 -73 130 -79 5 -9 -89 38 -180 89
-72 41 -203 127 -229 152 -11 10 -23 18 -27 18 -4 0 -10 7 -13 16 -7 18 -12
21 134 -76z m-3761 -10 c32 -30 137 -108 189 -139 28 -18 52 -34 52 -36 0 -2
-14 1 -32 6 -64 18 -169 102 -258 205 l-25 29 29 -25 c16 -14 36 -32 45 -40z
m377 -92 c3 -29 7 -63 9 -75 1 -13 -2 -23 -6 -23 -8 0 -14 48 -10 73 0 4 -4 7
-10 7 -8 0 -8 5 1 15 7 8 9 15 4 15 -5 0 -10 16 -10 37 -2 53 15 17 22 -49z
m3173 60 c-1 -13 -5 -36 -9 -53 -6 -22 -8 -25 -10 -10 -1 11 -4 35 -6 53 -3
23 0 32 11 32 9 0 15 -9 14 -22z m261 -54 c0 -2 -9 0 -20 6 -11 6 -20 13 -20
16 0 2 9 0 20 -6 11 -6 20 -13 20 -16z m72 -32 c26 -12 50 -27 53 -33 7 -10
-76 30 -105 51 -19 15 -6 10 52 -18z m141 -91 c7 -8 -7 -2 -30 14 -24 15 -43
30 -43 32 0 7 61 -31 73 -46z m-3763 -16 c0 -17 -4 -23 -15 -19 -11 5 -12 10
-2 25 15 25 17 24 17 -6z m128 0 c-3 -3 -9 2 -12 12 -6 14 -5 15 5 6 7 -7 10
-15 7 -18z m3682 -10 c13 -14 21 -25 18 -25 -2 0 -15 11 -28 25 -13 14 -21 25
-18 25 2 0 15 -11 28 -25z m-583 -71 c0 -19 -1 -33 -4 -31 -8 9 -12 67 -5 67
4 0 8 -16 9 -36z m56 -110 c-4 -83 -13 -97 -14 -23 0 30 -2 66 -3 81 -1 18 2
24 9 18 7 -6 10 -36 8 -76z m-56 29 c-3 -10 -5 -4 -5 12 0 17 2 24 5 18 2 -7
2 -21 0 -30z m58 -122 c3 -5 1 -12 -5 -16 -5 -3 -10 1 -10 9 0 18 6 21 15 7z
m288 -65 c31 -14 59 -25 61 -23 2 1 12 -5 22 -13 11 -9 45 -29 76 -45 32 -16
56 -30 54 -32 -8 -9 -272 120 -296 144 -13 14 -13 14 5 5 11 -6 46 -22 78 -36z
m-296 -8 c-3 -8 -6 -5 -6 6 -1 11 2 17 5 13 3 -3 4 -12 1 -19z m-883 -105 c-3
-16 -6 -36 -7 -45 -1 -10 -5 -18 -9 -18 -4 0 -6 10 -4 23 3 12 5 32 5 45 1 12
5 22 10 22 5 0 7 -12 5 -27z m-4904 -300 c-11 -17 -11 -17 -6 0 3 10 7 28 7
40 2 22 2 22 6 0 2 -12 -1 -30 -7 -40z m-3 -45 c-3 -8 -6 -5 -6 6 -1 11 2 17
5 13 3 -3 4 -12 1 -19z m1815 -53 c-6 -34 -13 -32 -10 4 1 16 5 28 9 26 3 -3
4 -16 1 -30z m808 -35 c87 -29 180 -74 209 -99 13 -12 29 -21 35 -21 6 -1 25
-12 41 -26 18 -15 -21 1 -102 41 -72 36 -135 65 -138 65 -4 0 -21 7 -38 15
-57 26 -124 48 -180 60 -20 4 -39 11 -42 15 -6 10 134 -22 215 -50z m2185
-149 c-3 -16 -7 -49 -10 -72 -5 -43 -55 -203 -81 -266 -8 -17 -14 -37 -14 -44
0 -7 -2 -10 -5 -7 -4 3 12 70 35 149 23 79 43 154 46 166 2 12 9 35 15 50 6
16 10 29 10 31 -3 8 0 22 4 22 3 0 3 -13 0 -29z m-4999 -80 c-8 -50 -25 -96
-32 -88 -4 3 0 30 7 59 7 29 12 56 11 61 -1 4 3 7 9 7 8 0 9 -13 5 -39z m4724
25 c0 -8 -5 -18 -12 -22 -7 -5 -8 -3 -3 6 4 7 2 16 -6 21 -11 7 -10 9 4 9 9 0
17 -6 17 -14z m-2735 -96 c3 -5 1 -10 -4 -10 -6 0 -11 5 -11 10 0 6 2 10 4 10
3 0 8 -4 11 -10z m5 -50 c0 -5 -5 -10 -11 -10 -5 0 -7 5 -4 10 3 6 8 10 11 10
2 0 4 -4 4 -10z m-2089 -13 c-10 -10 -155 -17 -170 -7 -6 3 17 7 51 8 34 1 63
4 65 5 1 2 16 3 33 3 18 0 27 -3 21 -9z m2089 -28 c0 -11 -4 -18 -10 -14 -5 3
-7 12 -3 20 7 21 13 19 13 -6z m2 -54 c3 -13 1 -22 -3 -19 -9 5 -13 44 -5 44
2 0 6 -11 8 -25z m-2482 -155 c0 -3 -11 7 -24 21 -21 22 -57 104 -56 127 1 8
80 -139 80 -148z m5731 103 c-12 -20 -14 -14 -5 12 4 9 9 14 11 11 3 -2 0 -13
-6 -23z m-8 -43 c-3 -12 -8 -19 -11 -16 -5 6 5 36 12 36 2 0 2 -9 -1 -20z
m-343 -14 c0 -3 -4 -8 -10 -11 -5 -3 -10 -1 -10 4 0 6 5 11 10 11 6 0 10 -2
10 -4z m326 -48 c-2 -7 -6 -20 -9 -28 -3 -8 -18 -51 -33 -95 -42 -125 -126
-306 -153 -328 -12 -10 -13 -9 -4 8 12 23 66 137 68 145 0 3 11 28 23 55 13
28 40 96 60 152 20 57 40 103 44 103 3 0 5 -6 4 -12z m-6032 -87 c4 -5 -3 -7
-14 -4 -23 6 -26 13 -6 13 8 0 17 -4 20 -9z m3369 -17 c27 -3 66 -12 87 -19
21 -7 40 -11 43 -9 3 3 38 -10 79 -29 71 -33 128 -80 150 -121 6 -12 -6 -5
-27 17 -21 20 -44 37 -52 37 -7 0 -13 4 -13 8 0 7 -85 51 -115 59 -143 40
-169 44 -272 46 -101 2 -135 8 -102 19 14 5 160 0 222 -8z m-278 -4 c-3 -5
-12 -10 -18 -10 -7 0 -6 4 3 10 19 12 23 12 15 0z m35 6 c0 -3 -4 -8 -10 -11
-5 -3 -10 -1 -10 4 0 6 5 11 10 11 6 0 10 -2 10 -4z m1398 -87 c-3 -8 -7 -3
-11 10 -4 17 -3 21 5 13 5 -5 8 -16 6 -23z m-3968 -54 c-17 -50 -53 -69 -160
-82 -47 -5 -225 -8 -225 -3 0 1 -69 6 -144 9 -39 1 -37 9 5 17 45 8 92 8 184
-1 123 -12 190 -12 233 -2 42 11 107 71 108 102 0 11 3 14 6 8 2 -7 -1 -29 -7
-48z m3977 13 c-3 -8 -6 -5 -6 6 -1 11 2 17 5 13 3 -3 4 -12 1 -19z m8 -135
c15 -48 29 -96 31 -108 12 -50 16 -90 11 -84 -4 3 -9 16 -11 30 -2 13 -5 25
-7 27 -1 1 -2 5 -3 10 -1 4 -4 12 -8 18 -4 6 -10 24 -13 40 -3 16 -12 54 -20
84 -15 58 -17 70 -11 70 2 0 16 -39 31 -87z m-4162 -77 c44 -7 45 -16 1 -17
-169 -5 -284 -5 -284 1 0 24 173 33 283 16z m6602 -57 c11 -16 1 -19 -13 -3
-7 8 -8 14 -3 14 5 0 13 -5 16 -11z m-4399 -127 c-9 -8 -90 46 -126 83 -31 33
-26 31 48 -21 45 -31 80 -59 78 -62z m3088 74 c-3 -9 -10 -16 -15 -16 -5 0 -4
9 3 20 14 22 21 20 12 -4z m-207 -98 c-3 -8 -6 -5 -6 6 -1 11 2 17 5 13 3 -3
4 -12 1 -19z"/>
</g>
</svg>
